<mxfile host="app.diagrams.net" modified="2023-04-19T12:46:25.837Z" agent="Mozilla/5.0 (Macintosh; Intel Mac OS X 10.15; rv:107.0) Gecko/20100101 Firefox/107.0" etag="N7YOMJnidIl5LZ7UsiRQ" version="21.2.0" type="github">
  <diagram name="Page-1" id="QdUkj8Ur5288xrF31si3">
    <mxGraphModel dx="1798" dy="1067" grid="1" gridSize="10" guides="1" tooltips="1" connect="1" arrows="1" fold="1" page="1" pageScale="1" pageWidth="850" pageHeight="1100" math="0" shadow="0">
      <root>
        <mxCell id="0" />
        <mxCell id="1" parent="0" />
        <mxCell id="eMU_B6IKwmMVOaki3g4G-1" style="edgeStyle=orthogonalEdgeStyle;rounded=0;orthogonalLoop=1;jettySize=auto;html=1;" edge="1" parent="1" source="9MLVyYeETURs7M_sEOvT-1">
          <mxGeometry relative="1" as="geometry">
            <mxPoint x="510" y="230" as="targetPoint" />
          </mxGeometry>
        </mxCell>
        <mxCell id="EZ3wFEgHvmXAV5Txymbc-1" style="edgeStyle=orthogonalEdgeStyle;rounded=0;orthogonalLoop=1;jettySize=auto;html=1;" edge="1" parent="1" source="9MLVyYeETURs7M_sEOvT-1">
          <mxGeometry relative="1" as="geometry">
            <mxPoint x="470" y="390" as="targetPoint" />
          </mxGeometry>
        </mxCell>
        <mxCell id="9MLVyYeETURs7M_sEOvT-1" value="Actor" style="shape=umlActor;verticalLabelPosition=bottom;verticalAlign=top;html=1;outlineConnect=0;" parent="1" vertex="1">
          <mxGeometry x="220" y="200" width="150" height="330" as="geometry" />
        </mxCell>
      </root>
    </mxGraphModel>
  </diagram>
</mxfile>
